<?xml version="1.0" encoding="UTF-8"?>
<!DOCTYPE svg PUBLIC "-//W3C//DTD SVG 1.1//EN" "http://www.w3.org/Graphics/SVG/1.1/DTD/svg11.dtd">
<svg width="160mm" height="90mm" viewBox="0 0 16000 9000" version="1.1" xmlns="http://www.w3.org/2000/svg" xmlns:xlink="http://www.w3.org/1999/xlink" stroke-width="28.222" stroke-linejoin="round" xml:space="preserve">
 <path fill="rgb(255,255,255)" stroke="none" d="M 8000,8999 L 0,8999 0,0 15999,0 15999,8999 8000,8999 Z"/>
 <path fill="none" stroke="rgb(179,179,179)" stroke-linejoin="round" d="M 7601,8172 L 2218,8172 2218,1474 12983,1474 12983,8172 7601,8172 Z"/>
 <path fill="none" stroke="rgb(179,179,179)" stroke-linejoin="round" d="M 12983,8171 L 2218,8171"/>
 <path fill="none" stroke="rgb(179,179,179)" stroke-linejoin="round" d="M 12983,7501 L 2218,7501"/>
 <path fill="none" stroke="rgb(179,179,179)" stroke-linejoin="round" d="M 12983,6831 L 2218,6831"/>
 <path fill="none" stroke="rgb(179,179,179)" stroke-linejoin="round" d="M 12983,6161 L 2218,6161"/>
 <path fill="none" stroke="rgb(179,179,179)" stroke-linejoin="round" d="M 12983,5491 L 2218,5491"/>
 <path fill="none" stroke="rgb(179,179,179)" stroke-linejoin="round" d="M 12983,4821 L 2218,4821"/>
 <path fill="none" stroke="rgb(179,179,179)" stroke-linejoin="round" d="M 12983,4152 L 2218,4152"/>
 <path fill="none" stroke="rgb(179,179,179)" stroke-linejoin="round" d="M 12983,3482 L 2218,3482"/>
 <path fill="none" stroke="rgb(179,179,179)" stroke-linejoin="round" d="M 12983,2812 L 2218,2812"/>
 <path fill="none" stroke="rgb(179,179,179)" stroke-linejoin="round" d="M 12983,2142 L 2218,2142"/>
 <path fill="none" stroke="rgb(179,179,179)" stroke-linejoin="round" d="M 12983,1472 L 2218,1472"/>
 <path fill="none" stroke="rgb(179,179,179)" stroke-linejoin="round" d="M 2218,8321 L 2218,8171"/>
 <path fill="none" stroke="rgb(179,179,179)" stroke-linejoin="round" d="M 2218,8321 L 2218,8171"/>
 <path fill="none" stroke="rgb(179,179,179)" stroke-linejoin="round" d="M 4371,8321 L 4371,8171"/>
 <path fill="none" stroke="rgb(179,179,179)" stroke-linejoin="round" d="M 4371,8321 L 4371,8171"/>
 <path fill="none" stroke="rgb(179,179,179)" stroke-linejoin="round" d="M 6524,8321 L 6524,8171"/>
 <path fill="none" stroke="rgb(179,179,179)" stroke-linejoin="round" d="M 6524,8321 L 6524,8171"/>
 <path fill="none" stroke="rgb(179,179,179)" stroke-linejoin="round" d="M 8676,8321 L 8676,8171"/>
 <path fill="none" stroke="rgb(179,179,179)" stroke-linejoin="round" d="M 8676,8321 L 8676,8171"/>
 <path fill="none" stroke="rgb(179,179,179)" stroke-linejoin="round" d="M 10829,8321 L 10829,8171"/>
 <path fill="none" stroke="rgb(179,179,179)" stroke-linejoin="round" d="M 10829,8321 L 10829,8171"/>
 <path fill="none" stroke="rgb(179,179,179)" stroke-linejoin="round" d="M 12983,8321 L 12983,8171"/>
 <path fill="none" stroke="rgb(179,179,179)" stroke-linejoin="round" d="M 12983,8321 L 12983,8171"/>
 <path fill="none" stroke="rgb(179,179,179)" stroke-linejoin="round" d="M 2218,8171 L 12983,8171"/>
 <path fill="none" stroke="rgb(179,179,179)" stroke-linejoin="round" d="M 2068,8171 L 2218,8171"/>
 <path fill="none" stroke="rgb(179,179,179)" stroke-linejoin="round" d="M 2068,8171 L 2218,8171"/>
 <path fill="none" stroke="rgb(179,179,179)" stroke-linejoin="round" d="M 2068,7501 L 2218,7501"/>
 <path fill="none" stroke="rgb(179,179,179)" stroke-linejoin="round" d="M 2068,7501 L 2218,7501"/>
 <path fill="none" stroke="rgb(179,179,179)" stroke-linejoin="round" d="M 2068,6831 L 2218,6831"/>
 <path fill="none" stroke="rgb(179,179,179)" stroke-linejoin="round" d="M 2068,6831 L 2218,6831"/>
 <path fill="none" stroke="rgb(179,179,179)" stroke-linejoin="round" d="M 2068,6161 L 2218,6161"/>
 <path fill="none" stroke="rgb(179,179,179)" stroke-linejoin="round" d="M 2068,6161 L 2218,6161"/>
 <path fill="none" stroke="rgb(179,179,179)" stroke-linejoin="round" d="M 2068,5491 L 2218,5491"/>
 <path fill="none" stroke="rgb(179,179,179)" stroke-linejoin="round" d="M 2068,5491 L 2218,5491"/>
 <path fill="none" stroke="rgb(179,179,179)" stroke-linejoin="round" d="M 2068,4821 L 2218,4821"/>
 <path fill="none" stroke="rgb(179,179,179)" stroke-linejoin="round" d="M 2068,4821 L 2218,4821"/>
 <path fill="none" stroke="rgb(179,179,179)" stroke-linejoin="round" d="M 2068,4152 L 2218,4152"/>
 <path fill="none" stroke="rgb(179,179,179)" stroke-linejoin="round" d="M 2068,4152 L 2218,4152"/>
 <path fill="none" stroke="rgb(179,179,179)" stroke-linejoin="round" d="M 2068,3482 L 2218,3482"/>
 <path fill="none" stroke="rgb(179,179,179)" stroke-linejoin="round" d="M 2068,3482 L 2218,3482"/>
 <path fill="none" stroke="rgb(179,179,179)" stroke-linejoin="round" d="M 2068,2812 L 2218,2812"/>
 <path fill="none" stroke="rgb(179,179,179)" stroke-linejoin="round" d="M 2068,2812 L 2218,2812"/>
 <path fill="none" stroke="rgb(179,179,179)" stroke-linejoin="round" d="M 2068,2142 L 2218,2142"/>
 <path fill="none" stroke="rgb(179,179,179)" stroke-linejoin="round" d="M 2068,2142 L 2218,2142"/>
 <path fill="none" stroke="rgb(179,179,179)" stroke-linejoin="round" d="M 2068,1472 L 2218,1472"/>
 <path fill="none" stroke="rgb(179,179,179)" stroke-linejoin="round" d="M 2068,1472 L 2218,1472"/>
 <path fill="none" stroke="rgb(179,179,179)" stroke-linejoin="round" d="M 2218,8171 L 2218,1472"/>
 <path fill="none" stroke="rgb(0,69,134)" stroke-width="80" stroke-linejoin="round" d="M 4371,8095 L 6524,7603 8676,7463 10829,6957 12983,2997"/>
 <path fill="rgb(0,69,134)" stroke="none" d="M 4246,7970 L 4246,8220 4496,8220 4496,7970 4246,7970 Z"/>
 <path fill="none" stroke="rgb(0,69,134)" stroke-linejoin="round" d="M 4246,7970 L 4246,8220 4496,8220 4496,7970 4246,7970 Z"/>
 <path fill="rgb(0,69,134)" stroke="none" d="M 6399,7478 L 6399,7728 6649,7728 6649,7478 6399,7478 Z"/>
 <path fill="none" stroke="rgb(0,69,134)" stroke-linejoin="round" d="M 6399,7478 L 6399,7728 6649,7728 6649,7478 6399,7478 Z"/>
 <path fill="rgb(0,69,134)" stroke="none" d="M 8551,7338 L 8551,7588 8801,7588 8801,7338 8551,7338 Z"/>
 <path fill="none" stroke="rgb(0,69,134)" stroke-linejoin="round" d="M 8551,7338 L 8551,7588 8801,7588 8801,7338 8551,7338 Z"/>
 <path fill="rgb(0,69,134)" stroke="none" d="M 10704,6832 L 10704,7082 10954,7082 10954,6832 10704,6832 Z"/>
 <path fill="none" stroke="rgb(0,69,134)" stroke-linejoin="round" d="M 10704,6832 L 10704,7082 10954,7082 10954,6832 10704,6832 Z"/>
 <path fill="rgb(0,69,134)" stroke="none" d="M 12858,2872 L 12858,3122 13108,3122 13108,2872 12858,2872 Z"/>
 <path fill="none" stroke="rgb(0,69,134)" stroke-linejoin="round" d="M 12858,2872 L 12858,3122 13108,3122 13108,2872 12858,2872 Z"/>
 <path fill="none" stroke="rgb(255,66,14)" stroke-width="80" stroke-linejoin="round" d="M 4371,8083 L 6524,7523 8676,7381 10829,6728 12983,1870"/>
 <path fill="rgb(255,66,14)" stroke="none" d="M 4246,8083 L 4371,8208 4496,8083 4371,7958 4246,8083 Z"/>
 <path fill="none" stroke="rgb(255,66,14)" stroke-linejoin="round" d="M 4246,8083 L 4371,8208 4496,8083 4371,7958 4246,8083 Z"/>
 <path fill="rgb(255,66,14)" stroke="none" d="M 6399,7523 L 6524,7648 6649,7523 6524,7398 6399,7523 Z"/>
 <path fill="none" stroke="rgb(255,66,14)" stroke-linejoin="round" d="M 6399,7523 L 6524,7648 6649,7523 6524,7398 6399,7523 Z"/>
 <path fill="rgb(255,66,14)" stroke="none" d="M 8551,7381 L 8676,7506 8801,7381 8676,7256 8551,7381 Z"/>
 <path fill="none" stroke="rgb(255,66,14)" stroke-linejoin="round" d="M 8551,7381 L 8676,7506 8801,7381 8676,7256 8551,7381 Z"/>
 <path fill="rgb(255,66,14)" stroke="none" d="M 10704,6728 L 10829,6853 10954,6728 10829,6603 10704,6728 Z"/>
 <path fill="none" stroke="rgb(255,66,14)" stroke-linejoin="round" d="M 10704,6728 L 10829,6853 10954,6728 10829,6603 10704,6728 Z"/>
 <path fill="rgb(255,66,14)" stroke="none" d="M 12858,1870 L 12983,1995 13108,1870 12983,1745 12858,1870 Z"/>
 <path fill="none" stroke="rgb(255,66,14)" stroke-linejoin="round" d="M 12858,1870 L 12983,1995 13108,1870 12983,1745 12858,1870 Z"/>
 <text class="TextShape"><tspan class="TextParagraph" font-family="Liberation Sans, sans-serif" font-size="353px" font-weight="400"><tspan class="TextPosition" x="1331" y="8739"><tspan fill="rgb(0,0,0)" stroke="none">Pixel Count</tspan></tspan></tspan></text>
 <text class="TextShape"><tspan class="TextParagraph" font-family="Liberation Sans, sans-serif" font-size="353px" font-weight="400"><tspan class="TextPosition" x="3815" y="8739"><tspan fill="rgb(0,0,0)" stroke="none">235520</tspan></tspan></tspan></text>
 <text class="TextShape"><tspan class="TextParagraph" font-family="Liberation Sans, sans-serif" font-size="353px" font-weight="400"><tspan class="TextPosition" x="5876" y="8739"><tspan fill="rgb(0,0,0)" stroke="none">1738400</tspan></tspan></tspan></text>
 <text class="TextShape"><tspan class="TextParagraph" font-family="Liberation Sans, sans-serif" font-size="353px" font-weight="400"><tspan class="TextPosition" x="8029" y="8739"><tspan fill="rgb(0,0,0)" stroke="none">2249472</tspan></tspan></tspan></text>
 <text class="TextShape"><tspan class="TextParagraph" font-family="Liberation Sans, sans-serif" font-size="353px" font-weight="400"><tspan class="TextPosition" x="10182" y="8739"><tspan fill="rgb(0,0,0)" stroke="none">4030689</tspan></tspan></tspan></text>
 <text class="TextShape"><tspan class="TextParagraph" font-family="Liberation Sans, sans-serif" font-size="353px" font-weight="400"><tspan class="TextPosition" x="12243" y="8739"><tspan fill="rgb(0,0,0)" stroke="none">16623506</tspan></tspan></tspan></text>
 <text class="TextShape"><tspan class="TextParagraph" font-family="Liberation Sans, sans-serif" font-size="353px" font-weight="400"><tspan class="TextPosition" x="1783" y="8292"><tspan fill="rgb(0,0,0)" stroke="none">0</tspan></tspan></tspan></text>
 <text class="TextShape"><tspan class="TextParagraph" font-family="Liberation Sans, sans-serif" font-size="353px" font-weight="400"><tspan class="TextPosition" x="1598" y="7622"><tspan fill="rgb(0,0,0)" stroke="none">10</tspan></tspan></tspan></text>
 <text class="TextShape"><tspan class="TextParagraph" font-family="Liberation Sans, sans-serif" font-size="353px" font-weight="400"><tspan class="TextPosition" x="1598" y="6952"><tspan fill="rgb(0,0,0)" stroke="none">20</tspan></tspan></tspan></text>
 <text class="TextShape"><tspan class="TextParagraph" font-family="Liberation Sans, sans-serif" font-size="353px" font-weight="400"><tspan class="TextPosition" x="1598" y="6282"><tspan fill="rgb(0,0,0)" stroke="none">30</tspan></tspan></tspan></text>
 <text class="TextShape"><tspan class="TextParagraph" font-family="Liberation Sans, sans-serif" font-size="353px" font-weight="400"><tspan class="TextPosition" x="1598" y="5612"><tspan fill="rgb(0,0,0)" stroke="none">40</tspan></tspan></tspan></text>
 <text class="TextShape"><tspan class="TextParagraph" font-family="Liberation Sans, sans-serif" font-size="353px" font-weight="400"><tspan class="TextPosition" x="1598" y="4942"><tspan fill="rgb(0,0,0)" stroke="none">50</tspan></tspan></tspan></text>
 <text class="TextShape"><tspan class="TextParagraph" font-family="Liberation Sans, sans-serif" font-size="353px" font-weight="400"><tspan class="TextPosition" x="1598" y="4272"><tspan fill="rgb(0,0,0)" stroke="none">60</tspan></tspan></tspan></text>
 <text class="TextShape"><tspan class="TextParagraph" font-family="Liberation Sans, sans-serif" font-size="353px" font-weight="400"><tspan class="TextPosition" x="1598" y="3602"><tspan fill="rgb(0,0,0)" stroke="none">70</tspan></tspan></tspan></text>
 <text class="TextShape"><tspan class="TextParagraph" font-family="Liberation Sans, sans-serif" font-size="353px" font-weight="400"><tspan class="TextPosition" x="1598" y="2932"><tspan fill="rgb(0,0,0)" stroke="none">80</tspan></tspan></tspan></text>
 <text class="TextShape"><tspan class="TextParagraph" font-family="Liberation Sans, sans-serif" font-size="353px" font-weight="400"><tspan class="TextPosition" x="1598" y="2262"><tspan fill="rgb(0,0,0)" stroke="none">90</tspan></tspan></tspan></text>
 <text class="TextShape"><tspan class="TextParagraph" font-family="Liberation Sans, sans-serif" font-size="353px" font-weight="400"><tspan class="TextPosition" x="1412" y="1592"><tspan fill="rgb(0,0,0)" stroke="none">100</tspan></tspan></tspan></text>
 <text class="TextShape"><tspan class="TextParagraph" font-family="Liberation Sans, sans-serif" font-size="459px" font-weight="400"><tspan class="TextPosition" x="6703" y="851"><tspan fill="rgb(0,0,0)" stroke="none">Improvement</tspan></tspan></tspan></text>
 <path fill="none" stroke="rgb(0,69,134)" stroke-width="80" stroke-linejoin="round" d="M 14162,4250 L 14962,4250"/>
 <path fill="rgb(0,69,134)" stroke="none" d="M 14456,4145 L 14456,4356 14667,4356 14667,4145 14456,4145 Z"/>
 <path fill="none" stroke="rgb(0,69,134)" stroke-linejoin="round" d="M 14456,4145 L 14456,4356 14667,4356 14667,4145 14456,4145 Z"/>
 <path fill="none" stroke="rgb(255,66,14)" stroke-width="80" stroke-linejoin="round" d="M 14162,4747 L 14962,4747"/>
 <path fill="rgb(255,66,14)" stroke="none" d="M 14456,4747 L 14562,4853 14667,4747 14562,4642 14456,4747 Z"/>
 <path fill="none" stroke="rgb(255,66,14)" stroke-linejoin="round" d="M 14456,4747 L 14562,4853 14667,4747 14562,4642 14456,4747 Z"/>
 <text class="TextShape"><tspan class="TextParagraph" font-family="Liberation Sans, sans-serif" font-size="353px" font-weight="400"><tspan class="TextPosition" x="15062" y="4370"><tspan fill="rgb(0,0,0)" stroke="none">new</tspan></tspan></tspan></text>
 <text class="TextShape"><tspan class="TextParagraph" font-family="Liberation Sans, sans-serif" font-size="353px" font-weight="400"><tspan class="TextPosition" x="15062" y="4867"><tspan fill="rgb(0,0,0)" stroke="none">old</tspan></tspan></tspan></text>
 <text class="TextShape" transform="rotate(-90 837 5655)"><tspan class="TextParagraph" font-family="Liberation Sans, sans-serif" font-size="318px" font-weight="400"><tspan class="TextPosition" x="837" y="5655"><tspan fill="rgb(0,0,0)" stroke="none">seconds</tspan></tspan></tspan></text>
</svg>